<svg id="Layer_1" data-name="Layer 1" xmlns="http://www.w3.org/2000/svg" xmlns:xlink="http://www.w3.org/1999/xlink"
    viewBox="0 0 1417.32 1417.32">
    <defs>
        <style>
            .cls-1 {
                fill: #f2f2f2;
            }

            .cls-2 {
                fill: url(#linear-gradient);
            }

            .cls-3 {
                fill: url(#radial-gradient);
            }

            .cls-4 {
                fill: url(#linear-gradient-2);
            }

            .cls-5 {
                fill: url(#linear-gradient-3);
            }

            .cls-6 {
                fill: url(#linear-gradient-4);
            }

            .cls-7 {
                fill: url(#linear-gradient-5);
            }

            .cls-8 {
                fill: url(#linear-gradient-6);
            }

            .cls-9 {
                fill: url(#linear-gradient-7);
            }

            .cls-10 {
                fill: url(#linear-gradient-8);
            }
        </style>
        <linearGradient id="linear-gradient" x1="1038.28" y1="521.87" x2="687.93" y2="1438.84"
            gradientUnits="userSpaceOnUse">
            <stop offset="0.03" stop-color="#fcfcfc" />
            <stop offset="0.36" stop-color="#d9d9d9" />
            <stop offset="0.44" stop-color="#c2c2c2" />
            <stop offset="0.61" stop-color="#858585" />
            <stop offset="0.86" stop-color="#252525" />
            <stop offset="0.89" stop-color="#1a1a1a" />
        </linearGradient>
        <radialGradient id="radial-gradient" cx="895.75" cy="787.69" fx="733.6976063978277" fy="760.961265394174"
            r="297.29" gradientUnits="userSpaceOnUse">
            <stop offset="0.3" stop-color="#d9d9d9" />
            <stop offset="0.37" stop-color="#c2c2c2" />
            <stop offset="0.53" stop-color="#858585" />
            <stop offset="0.75" stop-color="#252525" />
            <stop offset="0.78" stop-color="#1a1a1a" />
        </radialGradient>
        <linearGradient id="linear-gradient-2" x1="572.34" y1="446.82" x2="538.02" y2="1351.08"
            gradientUnits="userSpaceOnUse">
            <stop offset="0" stop-color="#fcfcfc" />
            <stop offset="0.4" stop-color="#d9d9d9" />
            <stop offset="0.49" stop-color="#c2c2c2" />
            <stop offset="0.69" stop-color="#858585" />
            <stop offset="0.97" stop-color="#252525" />
            <stop offset="1" stop-color="#1a1a1a" />
        </linearGradient>
        <linearGradient id="linear-gradient-3" x1="255.71" y1="302.53" x2="420.61" y2="302.53"
            gradientUnits="userSpaceOnUse">
            <stop offset="0.2" stop-color="#fcfcfc" />
            <stop offset="0.61" stop-color="#d9d9d9" />
            <stop offset="0.67" stop-color="#c2c2c2" />
            <stop offset="0.79" stop-color="#858585" />
            <stop offset="0.97" stop-color="#252525" />
            <stop offset="0.99" stop-color="#1a1a1a" />
        </linearGradient>
        <linearGradient id="linear-gradient-4" x1="608.61" y1="277.67" x2="606.44" y2="414.86"
            gradientUnits="userSpaceOnUse">
            <stop offset="0.29" stop-color="#fcfcfc" />
            <stop offset="0.68" stop-color="#d9d9d9" />
            <stop offset="0.72" stop-color="#c2c2c2" />
            <stop offset="0.82" stop-color="#858585" />
            <stop offset="0.96" stop-color="#252525" />
            <stop offset="0.97" stop-color="#1a1a1a" />
        </linearGradient>
        <linearGradient id="linear-gradient-5" x1="795.25" y1="115.9" x2="498.55" y2="471.59"
            gradientUnits="userSpaceOnUse">
            <stop offset="0.2" stop-color="#fcfcfc" />
            <stop offset="0.74" stop-color="#d9d9d9" />
            <stop offset="0.78" stop-color="#c2c2c2" />
            <stop offset="0.86" stop-color="#858585" />
            <stop offset="0.98" stop-color="#252525" />
            <stop offset="0.99" stop-color="#1a1a1a" />
        </linearGradient>
        <linearGradient id="linear-gradient-6" x1="595.79" y1="417.91" x2="221.9" y2="417.91"
            gradientUnits="userSpaceOnUse">
            <stop offset="0" stop-color="#fcfcfc" />
            <stop offset="0.33" stop-color="#d9d9d9" />
            <stop offset="0.43" stop-color="#c2c2c2" />
            <stop offset="0.65" stop-color="#858585" />
            <stop offset="0.97" stop-color="#252525" />
            <stop offset="1" stop-color="#1a1a1a" />
        </linearGradient>
        <linearGradient id="linear-gradient-7" x1="617.25" y1="377.45" x2="914.66" y2="377.45"
            gradientUnits="userSpaceOnUse">
            <stop offset="0" stop-color="#fcfcfc" />
            <stop offset="0.32" stop-color="#d9d9d9" />
            <stop offset="0.43" stop-color="#c2c2c2" />
            <stop offset="0.65" stop-color="#858585" />
            <stop offset="0.97" stop-color="#252525" />
            <stop offset="1" stop-color="#1a1a1a" />
        </linearGradient>
        <linearGradient id="linear-gradient-8" x1="868.85" y1="451.31" x2="353.36" y2="451.31"
            gradientUnits="userSpaceOnUse">
            <stop offset="0" stop-color="#f2f2f2" />
            <stop offset="0.27" stop-color="#d9d9d9" />
            <stop offset="0.37" stop-color="#c2c2c2" />
            <stop offset="0.58" stop-color="#858585" />
            <stop offset="0.89" stop-color="#252525" />
            <stop offset="0.92" stop-color="#1a1a1a" />
        </linearGradient>
    </defs>
    <path class="cls-1" d="M860.58,309.38,613.7,311,452.13,312.1v-9.2L855.54,306c1.37.88,2.63,1.73,3.78,2.52Z" />
    <path class="cls-1" d="M1095,307.81l-191.66,1.28c-.49-.93-1-1.84-1.49-2.75Z" />
    <path class="cls-1"
        d="M1161,378.1v1.23a11.63,11.63,0,0,1-11.57-10.5V345.14a13.54,13.54,0,0,0-27.05,0v32.69h-7.07V309a48.79,48.79,0,0,1,3.52-14.29,47.46,47.46,0,0,1,4.2-8.32,35.74,35.74,0,0,1,4.77-5.93,41.28,41.28,0,0,1,4.91-4.15,19.4,19.4,0,0,1,4.16-2.4,40.73,40.73,0,0,1,5.34-1.72,36.53,36.53,0,0,1,4.63-.88,16.37,16.37,0,0,1,3.57,0c1.33.11,3,.33,4.79.64a20.12,20.12,0,0,1,6.44,2.14l-.92.93a15.74,15.74,0,0,0-7.23-1.47c-1.6,0-2.85,0-4.48.23a23.7,23.7,0,0,0-5.67,1.24,22.46,22.46,0,0,0-6.18,3.56,32.88,32.88,0,0,0-6.29,6.57,47.84,47.84,0,0,0-5.5,10.15,35.77,35.77,0,0,0-3,13.29v21.85a20.5,20.5,0,0,1,34,13.94v21a40.93,40.93,0,0,0,.42,5.64,27.69,27.69,0,0,0,.58,3.32,5.27,5.27,0,0,0,1.08,2.24A4.83,4.83,0,0,0,1161,378.1Z" />
    <path class="cls-1" d="M1156.36,344.8l0-.43" />
    <path class="cls-1"
        d="M1104.4,379.17a10.68,10.68,0,0,1-10-5.84h-.81a20.41,20.41,0,0,1-34.47-14.67V334.35a17.67,17.67,0,0,0-.72-3.44,7.49,7.49,0,0,0-1.12-2.09,5.61,5.61,0,0,0-2.77-2.36v-1.14a12.43,12.43,0,0,1,4.34.87,11.14,11.14,0,0,1,3.57,2.07,8.87,8.87,0,0,1,2.21,3.24,12.35,12.35,0,0,1,1.07,5v22a13.84,13.84,0,0,0,27.67,0V327.05h6.81v43.42a12.49,12.49,0,0,0,.44,3,8.5,8.5,0,0,0,1,2.25,8.25,8.25,0,0,0,1.21,1.4,2.7,2.7,0,0,0,1.58.91Z" />
    <polygon class="cls-1" points="1028.69 352.55 1022.63 359.24 1016.29 352.56 1022.54 345.69 1028.69 352.55" />
    <path class="cls-1"
        d="M1048.48,356.16a27.63,27.63,0,0,1-1.09,5,27,27,0,0,1-2.13,4.9,26.47,26.47,0,0,1-3.11,4.47,27,27,0,0,1-4,3.73,25.32,25.32,0,0,1-4.53,2.77,25.69,25.69,0,0,1-4.79,1.75,26.62,26.62,0,0,1-4.76.74,25.85,25.85,0,0,1-9.78-1.32,26.05,26.05,0,0,1-4.83-2.22,25.55,25.55,0,0,1-4.36-3.24,26.89,26.89,0,0,1-3.62-4.07,27.54,27.54,0,0,1-2.66-4.62,27,27,0,0,1-1.66-4.85,27.17,27.17,0,0,1,.55-14.65,26.62,26.62,0,0,1,9.2-13.1,25.51,25.51,0,0,1,9.33-4.51,24.6,24.6,0,0,1,2.94-.57v6.93a19.19,19.19,0,0,0-12,7.55,20.3,20.3,0,0,0,2.22,26.54,18.87,18.87,0,0,0,26.25,0,20.27,20.27,0,0,0,2.21-26.53,19.13,19.13,0,0,0-12-7.55v-6.93a25.08,25.08,0,0,1,4.9,1.14,25.42,25.42,0,0,1,4.83,2.22A26.11,26.11,0,0,1,1040,333a26.43,26.43,0,0,1,3.61,4.08,27.2,27.2,0,0,1,2.67,4.62,27,27,0,0,1,2.36,9.65A27,27,0,0,1,1048.48,356.16Z" />
    <path class="cls-1"
        d="M988.76,325.12l-1.83,5.28a17.47,17.47,0,0,0-.79,2.74,22.35,22.35,0,0,0-.4,4c.13,12.94.13,26.27.13,39.61h-3.82l-31.8-35.22v35.55h-5.39V324.59l35.5,38.57v-26.5c.65-4.36,1.15-5.53,1.5-6.37a10.78,10.78,0,0,1,.88-1.8,7.49,7.49,0,0,1,1.11-1.26,8.06,8.06,0,0,1,1.64-1.36A5.88,5.88,0,0,1,988.76,325.12Z" />
    <path class="cls-2"
        d="M1158.58,790.25a223.09,223.09,0,0,1-11.24,47.38,426.27,426.27,0,0,1-26.09,59A407,407,0,0,1,1086,951.07a550.14,550.14,0,0,1-38.75,45.06c-13.08,13.78-26.12,26.53-38.58,38.32s-24.32,22.62-37.8,33.93-28.59,23.1-51.22,39.27-52.76,36.72-81.46,54.94-55.94,34.1-80.34,47.55S712,1234.6,691.59,1244.6s-39.53,19-56.65,20.27c44.49-26.2,80.65-50.49,108.41-69.66s47.15-33.21,66.31-48.08,38.09-30.56,54.67-44.75,30.8-26.86,43.62-39.31,24.24-24.69,34.3-36.18S961,1004.64,969.11,994s15.62-21.3,21.18-29.7c1.33-2,2.55-3.9,3.69-5.71a173.29,173.29,0,0,0,9.62-17.36,304.12,304.12,0,0,0,12.26-29,158.49,158.49,0,0,0,7.44-28.11,192.43,192.43,0,0,0,2.51-29.14,162.69,162.69,0,0,0-1.69-26.46c-.49-3.12-1.08-6.06-1.82-8.94a103.1,103.1,0,0,0-4.37-13.23,179.44,179.44,0,0,0-12.6-25.21,193.41,193.41,0,0,0-16.21-22.55,197.66,197.66,0,0,0-17.21-18.34A284,284,0,0,0,950,721.59c-8-6.13-16.57-12-24.79-17.14s-16.15-9.62-24.7-14.67c-2.77-1.63-5.59-3.32-8.5-5.07-6.09-3.65-12.51-7.54-19.38-11.57-10.14-6-21.24-12.24-33.58-19s-25.93-14.16-66.88-37.26a184.44,184.44,0,0,0,43.1-9.19c11.3-3.73,21.49-7.64,32-12.24s21.33-9.87,30.34-14.83a212.41,212.41,0,0,0,22.79-14.37,180.24,180.24,0,0,0,18-14.82,199.26,199.26,0,0,0,15.47-16.52,232.91,232.91,0,0,0,15.39-20.05c5-7.42,9.81-15.61,22.5-44,53.81,35,72,51.79,88.35,68.55a575,575,0,0,1,41.21,47.13,256,256,0,0,1,23.76,36.14,347.77,347.77,0,0,1,17.79,37.95,271.28,271.28,0,0,1,11.57,37.17,228.18,228.18,0,0,1,6.52,42.93A291,291,0,0,1,1158.58,790.25Z" />
    <path class="cls-3"
        d="M1025.81,854.91a192.43,192.43,0,0,1-2.51,29.14,158.49,158.49,0,0,1-7.44,28.11,304.12,304.12,0,0,1-12.26,29A173.29,173.29,0,0,1,994,958.55c-23.29-5.84-38.65-10.47-51.3-14.9a294,294,0,0,1-33.44-13.89c-10.83-5.26-22.55-11.61-32.27-17.61a192.5,192.5,0,0,1-25-18.08,232.52,232.52,0,0,1-21.25-20.86,252.84,252.84,0,0,1-18.17-22.77,217.73,217.73,0,0,1-16.25-26.34,294.18,294.18,0,0,1-13.44-30.91,260.54,260.54,0,0,1-10-31.84,253.6,253.6,0,0,1-5.78-35.7c-1.11-12.27-1.32-24.57-1.4-35.88s0-21.63.64-34.3,1.87-27.71,5.79-38.64c41,23.1,54.54,30.45,66.88,37.26s23.44,13.09,33.58,19c6.87,4,13.29,7.92,19.38,11.57-.9,12.87,1.42,22.26,4.24,31.12a169.77,169.77,0,0,0,9.55,24A92.64,92.64,0,0,0,917.55,758a194.79,194.79,0,0,0,16.77,17.76,142.79,142.79,0,0,0,17.46,14.11,168.75,168.75,0,0,0,22.14,12.51c9.32,4.51,21.26,9.71,48.38,17.13.74,2.88,1.33,5.82,1.82,8.94A162.69,162.69,0,0,1,1025.81,854.91Z" />
    <path class="cls-4"
        d="M768.5,883.14A177.48,177.48,0,0,1,766,907a166.23,166.23,0,0,1-6.54,24.41c-3.37,10-8.27,22.83-12.86,33.48A245.69,245.69,0,0,1,731.18,995a416,416,0,0,1-24.35,36.62,444.23,444.23,0,0,1-29.66,34.9c-10.75,11.61-22.54,23.81-39.32,39s-38.54,33.34-53.87,45.68-24.19,18.86-34.72,25.72-22.75,14.07-59.42,36-97.82,58.51-162.36,85.57c13.61-10.82,23.73-17.36,34.34-24.39s21.71-14.54,34.15-23.32,26.24-18.8,38.32-28.14a434.4,434.4,0,0,0,33.93-28.8c11.46-10.8,24-23.76,35-36a376.23,376.23,0,0,0,29.18-36.17,415.1,415.1,0,0,0,24-39c7.07-13,13.1-25.31,17.75-38.23a242.05,242.05,0,0,0,10.15-38.68,176.42,176.42,0,0,0,3-37,280.48,280.48,0,0,0-4.78-44.32,240,240,0,0,0-11.07-38.82,257.2,257.2,0,0,0-16.86-37.3,227.33,227.33,0,0,0-24.05-34.62A205,205,0,0,0,503,786.88c-10-8.21-21.25-16.21-33-24.86s-24.05-18-34.73-26.56-19.76-16.47-28.89-26.3a270.36,270.36,0,0,1-25.1-31.63,136.22,136.22,0,0,1-15.19-28.94,195.61,195.61,0,0,1-9.84-34.77,136,136,0,0,1-1.71-32.65,198.39,198.39,0,0,1,4.33-31.48,140.27,140.27,0,0,1,8.71-25.76,191,191,0,0,1,14.83-28.31A177.51,177.51,0,0,1,404,469.35a228.54,228.54,0,0,1,26.59-23.72c9.49-7.11,19.52-13.07,31.42-19.71s25.69-13.92,59.15-21.36h0c4.07-.49,8.62-.93,13.72-1.32-8.94.77-15,2.17-21.28,6.64-6.56,4.68-13.3,12.73-18.17,21.3a85.26,85.26,0,0,0-9.43,25.9,72.62,72.62,0,0,0-.84,23.1,94.66,94.66,0,0,0,5.59,21.58,96.39,96.39,0,0,0,10.83,20.83,188.55,188.55,0,0,0,16.18,20.17h0c.75.84,1.51,1.66,2.28,2.48a159.16,159.16,0,0,0,23.6,20.86c10.12,7.4,23.61,15.93,35.16,23.54s21.16,14.3,31.93,22.81,22.71,18.83,34.71,29.84,24.05,22.71,35.1,34.64S701.68,701,709.8,711.66s14.32,19.7,19.61,28.05,9.64,16,14,24.5a242.27,242.27,0,0,1,12.05,27.1,208.63,208.63,0,0,1,7.79,28.27,224.37,224.37,0,0,1,5.25,63.56Z" />
    <path class="cls-5"
        d="M382.41,305.59c0,2.94-.88,5.74-3.35,10s-6.52,9.91-13.19,18.55a306.41,306.41,0,0,1-32.75,36.38c-5.75-5.74-8.62-9.73-11.69-13A61.76,61.76,0,0,0,311.08,349c-4.05-2.79-8.91-5.89-13.37-8.54s-8.51-4.87-12.93-7.55-9.21-5.86-13.41-8.73a84.63,84.63,0,0,1-10.17-7.74,15.78,15.78,0,0,1-4.24-6.49,22.23,22.23,0,0,1-1.25-6.7c0-2.07.33-3.76,1.8-6.89s4.05-7.7,6.9-12.35a171.87,171.87,0,0,1,9.87-14.55,167.91,167.91,0,0,1,14.5-16.69,121.71,121.71,0,0,1,22.67-18.2c8.18,10.61,11.5,13.6,15.77,16.82s9.51,6.69,15.11,10.63,11.57,8.36,16.54,12.42a135.37,135.37,0,0,1,12.41,11.34,57.64,57.64,0,0,1,8.33,10.47A18.59,18.59,0,0,1,382.41,305.59Z" />
    <path class="cls-6"
        d="M635.4,409.55c-10.69-2.07-20.53-4.17-29.33-5.44a198.51,198.51,0,0,0-27.59-1.93c-1.61-8.2.25-14,2.47-20.65s4.84-14.13,7.5-21.33,5.39-14.12,8.9-21.52c.51-1.1,1-2.2,1.62-3.33A188.59,188.59,0,0,1,613.7,311c1.38,10.13,2.5,17.81,3.55,24.3.71,4.45,1.39,8.33,2.1,12,1.73,9.14,3.62,17.26,6.19,27.59S631.38,397.83,635.4,409.55Z" />
    <path class="cls-7"
        d="M929.16,419.9a196.57,196.57,0,0,1-5.22,34.17,112.37,112.37,0,0,1-11.85,29.36,236.57,236.57,0,0,1-20.21,28.89A228.28,228.28,0,0,1,872.4,533.9a129.6,129.6,0,0,1-20.5,16.44,201.32,201.32,0,0,1-28.14,14.71,239,239,0,0,1-32.38,11.52,173.15,173.15,0,0,1-29.76,5.25c-9.48.87-18.74,1-27.66,1.11a221.4,221.4,0,0,1-26.56-1,171.29,171.29,0,0,1-30.31-6.48c-11.77-3.48-25.82-8.5-54.27-23.39,11.09.26,22.33.29,33.39.29,15.06,0,29.81-.06,43.24-.77a346.19,346.19,0,0,0,36.32-3.82A221.47,221.47,0,0,0,762,542h0c14.38.92,20.43-.16,26.65-1.63a154.53,154.53,0,0,0,22.08-7c9.45-3.67,22-9.17,31.91-14.34S859.93,509,867,502.8a153.93,153.93,0,0,0,19.37-21.16,160.36,160.36,0,0,0,13.34-20.28A97.4,97.4,0,0,0,906.91,445a98.82,98.82,0,0,0,3.91-16.26,150.37,150.37,0,0,0,1.78-20.29,110.18,110.18,0,0,0-1.51-21.12A100,100,0,0,0,905,366.76a118.79,118.79,0,0,0-12.91-23.87,206,206,0,0,0-19.78-23.48,71.72,71.72,0,0,0-11.69-10l-1.26-.87c-1.15-.79-2.41-1.64-3.78-2.52a101,101,0,0,0-14.74-8c-8.12-3.56-18.42-6.74-26.43-9.06s-13.71-3.76-31.72-5-48.28-2.16-85.08-2.41-80.14.18-115.84.84S518,284,499.42,284.11s-27.51-.44-36.47-1.62-17.87-2.95-26.3-6.67-16.4-9.4-23.07-15a140.25,140.25,0,0,1-17.35-17.38A94.06,94.06,0,0,1,381.53,221c-4.16-9.21-7.26-20.63-10.08-36.18s-5.36-35.22-6-65.95c19.45,31.61,29.51,43.22,37.3,51.38S416.05,183.08,422,187a156.7,156.7,0,0,0,18.76,9.95c6.48,3.05,13.11,6.15,20.08,8s14.25,2.54,36.83,3,60.47.77,96.94.66,71.55-.63,98.19-.66,44.83.4,58.06,1.25,21.48,2.1,30.14,4.16a208.93,208.93,0,0,1,26.38,8.29A176.2,176.2,0,0,1,833,233.93a170,170,0,0,1,27,19.42,190.57,190.57,0,0,1,25.88,28.13,203.23,203.23,0,0,1,16,24.86c.5.91,1,1.82,1.49,2.75,1.24,2.35,2.47,4.77,3.69,7.24a317.81,317.81,0,0,1,16,39.19,119.93,119.93,0,0,1,6.1,30A237,237,0,0,1,929.16,419.9Z" />
    <path class="cls-8"
        d="M599,335.35c-.57,1.13-1.11,2.23-1.62,3.33-3.51,7.4-6.23,14.32-8.9,21.52s-5.27,14.68-7.5,21.33-4.08,12.45-2.47,20.65c-2.51,0-5,0-7.63,0-8.66,0-18,.12-26.12.47h-.1c-2.94.13-5.75.28-8.31.48l-1.37.11c-5.1.39-9.65.83-13.72,1.32h0A158.29,158.29,0,0,0,487.74,412c-10.72,3.43-19.06,6-27.5,9A236.85,236.85,0,0,0,435,431.38a222.74,222.74,0,0,0-24.46,14.14,154.57,154.57,0,0,0-25.76,20.58c-9.36,9.29-19.82,21.92-29.34,34.37,1.18-14.68,2.06-23.14,3-30.07a172.88,172.88,0,0,1,4-20.44c2-8.11,5.1-18.92,8.79-29.33a198.15,198.15,0,0,1,13.32-29.92,177.75,177.75,0,0,1,17.13-25.36,132.88,132.88,0,0,1,15.82-16.29c5-4.36,9.75-8.12,14.37-10.31s9.06-2.81,70.51-3.14C527.56,335.48,562.31,335.4,599,335.35Z" />
    <path class="cls-9"
        d="M877.34,367.46c-.18,3.7-1.44,7.76-5.91,13.67a80,80,0,0,1-22.53,19.75c-10.36,6.09-23.37,10.51-39.07,13.52s-34.08,4.62-52.28,5.1-36.23-.18-54.35-1.43-36.31-3.1-52.88-5.82c-5.13-.84-10.12-1.77-14.92-2.7-4-11.72-7.29-24.26-9.86-34.6s-4.46-18.45-6.19-27.59c-.71-3.71-1.39-7.59-2.1-12,47.29-.06,95.62-.07,129.13-.08,64.11,0,73.9,0,83.41,1.69a105.7,105.7,0,0,1,26.39,8.74,95.37,95.37,0,0,1,8.55,4.61,43,43,0,0,1,8.46,6.52C876.62,360.41,877.52,363.76,877.34,367.46Z" />
    <path class="cls-10"
        d="M896.18,414.41a71.43,71.43,0,0,1-4,17.51,146.39,146.39,0,0,1-9.67,19.84,230.18,230.18,0,0,1-14,22.6,125.58,125.58,0,0,1-17.22,19.1A200.55,200.55,0,0,1,827.77,512a212.42,212.42,0,0,1-29.24,16.51,251.2,251.2,0,0,1-32.2,12.27c-1.47.45-2.92.88-4.36,1.28h0a221.47,221.47,0,0,1-26.19,5.7,346.19,346.19,0,0,1-36.32,3.82c-13.43.71-28.18.77-43.24.77-11.06,0-22.3,0-33.39-.29q-6-.15-12-.4c-14.93-.62-29.37-1.81-45.32-3.26s-33.4-3.15-47.66-5.63h0a188.55,188.55,0,0,1-16.18-20.17,96.39,96.39,0,0,1-10.83-20.83,94.66,94.66,0,0,1-5.59-21.58,72.62,72.62,0,0,1,.84-23.1,85.26,85.26,0,0,1,9.43-25.9c4.87-8.57,11.61-16.62,18.17-21.3C519.93,405.4,526,404,535,403.23q4.53-.33,9.68-.59h.1c8.16-.35,17.46-.46,26.12-.47,2.59,0,5.12,0,7.63,0a198.51,198.51,0,0,1,27.59,1.93c8.8,1.27,18.64,3.37,29.33,5.44,4.8.93,9.79,1.86,14.92,2.7,16.57,2.72,34.77,4.57,52.88,5.82s36.14,1.91,54.35,1.43,36.59-2.08,52.28-5.1,28.71-7.43,39.07-13.52a80,80,0,0,0,22.53-19.75c4.47-5.91,5.73-10,5.91-13.67s-.72-7-4.15-10.66a43,43,0,0,0-8.46-6.52c9.07,4.5,12.94,8.21,16,11.54,5.78,6.23,8.77,11.16,11,16.92a78.52,78.52,0,0,1,4.43,35.67Z" />
</svg>